{
  "accessors": [
    {
      "bufferView": 3,
      "componentType": 5126,
      "count": 2372,
      "max": [
        1.3340643644332886,
        2.552600383758545,
        0.7842130661010742
      ],
      "min": [
        -1.334064245223999,
        -0.08344853669404984,
        -0.6764531135559082
      ],
      "type": "VEC3"
    },
    {
      "bufferView": 3,
      "byteOffset": 28464,
      "componentType": 5126,
      "count": 2372,
      "max": [
        0.9999456405639648,
        0.9999998807907104,
        0.999900221824646
      ],
      "min": [
        -0.9999456405639648,
        -1.0,
        -0.9999994039535522
      ],
      "type": "VEC3"
    },
    {
      "bufferView": 4,
      "componentType": 5126,
      "count": 2372,
      "max": [
        1.0,
        0.9880897402763367,
        0.9993281960487366,
        1.0
      ],
      "min": [
        -1.0,
        -0.9991545081138611,
        -0.9992417097091675,
        1.0
      ],
      "type": "VEC4"
    },
    {
      "bufferView": 2,
      "componentType": 5126,
      "count": 2372,
      "max": [
        0.9823660850524902,
        0.997106671333313
      ],
      "min": [
        0.0028971333522349596,
        0.0028962648939341307
      ],
      "type": "VEC2"
    },
    {
      "bufferView": 1,
      "componentType": 5125,
      "count": 12270,
      "type": "SCALAR"
    },
    {
      "bufferView": 5,
      "componentType": 5126,
      "count": 19,
      "max": [
        1.0,
        0.8618901968002319,
        0.0954301506280899,
        0.0,
        0.680503785610199,
        1.0,
        1.0,
        0.0,
        0.8618901968002319,
        0.9851083755493164,
        1.0,
        0.0,
        1.5164011716842651,
        1.2727686166763306,
        0.3369058668613434,
        1.0
      ],
      "min": [
        -0.9851088523864746,
        -0.8618901968002319,
        -0.0954301506280899,
        0.0,
        -0.680503785610199,
        -0.9986650347709656,
        -0.9993888139724731,
        0.0,
        -0.8618901968002319,
        -0.50709468126297,
        -0.998192548751831,
        0.0,
        -1.5164011716842651,
        -2.063239574432373,
        -1.9910571575164795,
        1.0
      ],
      "type": "MAT4"
    },
    {
      "bufferView": 0,
      "componentType": 5123,
      "count": 2372,
      "type": "VEC4"
    },
    {
      "bufferView": 4,
      "byteOffset": 37952,
      "componentType": 5126,
      "count": 2372,
      "max": [
        1.0,
        0.49999967217445374,
        0.31378689408302307,
        0.1979951113462448
      ],
      "min": [
        0.0,
        0.0,
        0.0,
        0.0
      ],
      "type": "VEC4"
    }
  ],
  "asset": {
    "extras": {
      "author": "Kefla (https://sketchfab.com/Kefla)",
      "license": "CC-BY-NC-4.0 (http://creativecommons.org/licenses/by-nc/4.0/)",
      "source": "https://sketchfab.com/3d-models/pingu-34d6e003b6654f428855d3c1c79e7f67",
      "title": "Pingu"
    },
    "generator": "Sketchfab-12.67.0",
    "version": "2.0"
  },
  "bufferViews": [
    {
      "buffer": 0,
      "byteLength": 18976,
      "byteStride": 8,
      "name": "shortBufferViews",
      "target": 34962
    },
    {
      "buffer": 0,
      "byteLength": 49080,
      "byteOffset": 18976,
      "name": "floatBufferViews",
      "target": 34963
    },
    {
      "buffer": 0,
      "byteLength": 18976,
      "byteOffset": 68056,
      "byteStride": 8,
      "name": "floatBufferViews",
      "target": 34962
    },
    {
      "buffer": 0,
      "byteLength": 56928,
      "byteOffset": 87032,
      "byteStride": 12,
      "name": "floatBufferViews",
      "target": 34962
    },
    {
      "buffer": 0,
      "byteLength": 75904,
      "byteOffset": 143960,
      "byteStride": 16,
      "name": "floatBufferViews",
      "target": 34962
    },
    {
      "buffer": 0,
      "byteLength": 1216,
      "byteOffset": 219864,
      "name": "floatBufferViews"
    }
  ],
  "buffers": [
    {
      "byteLength": 221080,
      "uri": "scene.bin"
    }
  ],
  "images": [
    {
      "uri": "textures/pingu_baseColor.png"
    },
    {
      "uri": "textures/pingu_metallicRoughness.png"
    },
    {
      "uri": "textures/pingu_normal.png"
    }
  ],
  "materials": [
    {
      "doubleSided": true,
      "name": "pingu",
      "normalTexture": {
        "index": 2
      },
      "pbrMetallicRoughness": {
        "baseColorTexture": {
          "index": 0
        },
        "metallicRoughnessTexture": {
          "index": 1
        }
      }
    }
  ],
  "meshes": [
    {
      "name": "Object_0",
      "primitives": [
        {
          "attributes": {
            "JOINTS_0": 6,
            "NORMAL": 1,
            "POSITION": 0,
            "TANGENT": 2,
            "TEXCOORD_0": 3,
            "TEXCOORD_1": 3,
            "TEXCOORD_2": 3,
            "TEXCOORD_3": 3,
            "WEIGHTS_0": 7
          },
          "indices": 4,
          "material": 0,
          "mode": 4
        }
      ]
    }
  ],
  "nodes": [
    {
      "children": [
        1
      ],
      "matrix": [
        1.0,
        0.0,
        0.0,
        0.0,
        0.0,
        2.220446049250313e-16,
        -1.0,
        0.0,
        0.0,
        1.0,
        2.220446049250313e-16,
        0.0,
        0.0,
        0.0,
        0.0,
        1.0
      ],
      "name": "Sketchfab_model"
    },
    {
      "children": [
        2
      ],
      "name": "root"
    },
    {
      "children": [
        3
      ],
      "matrix": [
        1.0,
        0.0,
        0.0,
        0.0,
        0.0,
        2.220446049250313e-16,
        1.0,
        0.0,
        0.0,
        -1.0,
        2.220446049250313e-16,
        0.0,
        0.0,
        0.0,
        0.0,
        1.0
      ],
      "name": "GLTF_SceneRootNode"
    },
    {
      "children": [
        4
      ],
      "name": "metarig_19"
    },
    {
      "children": [
        5,
        7,
        6
      ],
      "name": "GLTF_created_0"
    },
    {
      "children": [
        8,
        18,
        22
      ],
      "name": "GLTF_created_0_rootJoint"
    },
    {
      "name": "Noot_18"
    },
    {
      "mesh": 0,
      "name": "Object_7",
      "skin": 0
    },
    {
      "children": [
        9
      ],
      "name": "spine.001_9",
      "rotation": [
        0.06067182496190071,
        0.0,
        0.0,
        0.998157799243927
      ],
      "translation": [
        0.0,
        0.4020037055015564,
        -0.18238210678100586
      ]
    },
    {
      "children": [
        10
      ],
      "name": "spine.002_8",
      "rotation": [
        -0.03798582777380943,
        1.1912328545804485e-07,
        -4.528263541914157e-09,
        0.9992783069610596
      ],
      "scale": [
        1.0,
        0.9999999403953552,
        0.9999999403953552
      ],
      "translation": [
        0.0,
        0.5076282024383545,
        0.0
      ]
    },
    {
      "children": [
        11,
        12,
        15
      ],
      "name": "spine.003_7",
      "rotation": [
        0.05608289688825607,
        -1.1902169916311323e-07,
        6.685605846712406e-09,
        0.9984261393547058
      ],
      "translation": [
        -8.254827350102564e-15,
        0.6722156405448914,
        2.9614851015935528e-08
      ]
    },
    {
      "name": "spine.006_0",
      "rotation": [
        -0.01675502024590969,
        1.191925562693541e-07,
        -1.9973545040130603e-09,
        0.999859631061554
      ],
      "scale": [
        1.0,
        0.9999999403953552,
        0.9999998807907104
      ],
      "translation": [
        1.2351095623683306e-16,
        0.5092462301254272,
        -0.005727706477046013
      ]
    },
    {
      "children": [
        13
      ],
      "name": "shoulder.L_3",
      "rotation": [
        -0.6603969931602478,
        -0.3774755299091339,
        -0.3224356770515442,
        0.5634032487869263
      ],
      "scale": [
        1.0000001192092896,
        1.0,
        1.0
      ],
      "translation": [
        0.022700443863868713,
        0.4360273778438568,
        0.10810262709856033
      ]
    },
    {
      "children": [
        14
      ],
      "name": "upper_arm.L_2",
      "rotation": [
        -0.13723354041576385,
        0.7035844326019287,
        -0.4101036489009857,
        0.5638713240623474
      ],
      "scale": [
        1.0000001192092896,
        1.0000003576278687,
        1.0
      ],
      "translation": [
        0.009665051475167274,
        0.24907338619232178,
        -0.02528662048280239
      ]
    },
    {
      "name": "forearm.L_1",
      "rotation": [
        0.07140658795833588,
        0.05187927559018135,
        -0.1343611627817154,
        0.9869937896728516
      ],
      "scale": [
        1.0000001192092896,
        1.0000001192092896,
        1.0
      ],
      "translation": [
        2.5720519047922608e-08,
        0.9010290503501892,
        -3.373039625387264e-09
      ]
    },
    {
      "children": [
        16
      ],
      "name": "shoulder.R_6",
      "rotation": [
        -0.6603969931602478,
        0.3774755299091339,
        0.3224356770515442,
        0.5634032487869263
      ],
      "scale": [
        1.0000001192092896,
        1.0,
        1.0
      ],
      "translation": [
        -0.022700443863868713,
        0.4360273778438568,
        0.10810262709856033
      ]
    },
    {
      "children": [
        17
      ],
      "name": "upper_arm.R_5",
      "rotation": [
        -0.13723354041576385,
        -0.7035844326019287,
        0.4101036489009857,
        0.5638713240623474
      ],
      "scale": [
        1.0000001192092896,
        1.0000003576278687,
        1.0
      ],
      "translation": [
        -0.009665051475167274,
        0.24907338619232178,
        -0.02528662048280239
      ]
    },
    {
      "name": "forearm.R_4",
      "rotation": [
        0.07140658795833588,
        -0.05187927559018135,
        0.1343611627817154,
        0.9869937896728516
      ],
      "scale": [
        1.0000001192092896,
        1.0000001192092896,
        1.0
      ],
      "translation": [
        -2.5720519047922608e-08,
        0.9010290503501892,
        -3.373039625387264e-09
      ]
    },
    {
      "children": [
        19
      ],
      "name": "thigh.L_13",
      "rotation": [
        -0.999548077583313,
        3.58363827501762e-09,
        -1.1915548014940214e-07,
        0.030062232166528702
      ],
      "scale": [
        1.0,
        0.9999999403953552,
        0.9999999403953552
      ],
      "translation": [
        0.2755088210105896,
        0.38293030858039856,
        -0.09430640190839767
      ]
    },
    {
      "children": [
        20
      ],
      "name": "shin.L_12",
      "rotation": [
        -0.055008575320243835,
        0.030742695555090904,
        -0.007509511895477772,
        0.9979842901229858
      ],
      "scale": [
        0.9999998211860657,
        0.9999999403953552,
        0.9999998807907104
      ],
      "translation": [
        6.268948737897517e-08,
        0.15434136986732483,
        8.324022360284289e-09
      ]
    },
    {
      "children": [
        21
      ],
      "name": "foot.L_11",
      "rotation": [
        -0.6778860688209534,
        -0.08896835148334503,
        -0.10696705430746078,
        0.7218816876411438
      ],
      "translation": [
        2.7369761568252216e-08,
        0.2273593693971634,
        8.17346812453934e-09
      ]
    },
    {
      "name": "toe.L_10",
      "rotation": [
        -0.0221478920429945,
        0.9996019601821899,
        -0.0035876352339982986,
        0.017106449231505394
      ],
      "scale": [
        0.9999998807907104,
        1.0000003576278687,
        0.9999998211860657
      ],
      "translation": [
        -1.044303221675591e-08,
        0.6078669428825378,
        7.055379613873924e-10
      ]
    },
    {
      "children": [
        23
      ],
      "name": "thigh.R_17",
      "rotation": [
        -0.999548077583313,
        -3.58363827501762e-09,
        1.1915548014940214e-07,
        0.030062232166528702
      ],
      "scale": [
        1.0,
        0.9999999403953552,
        0.9999999403953552
      ],
      "translation": [
        -0.2755088210105896,
        0.38293030858039856,
        -0.09430640190839767
      ]
    },
    {
      "children": [
        24
      ],
      "name": "shin.R_16",
      "rotation": [
        -0.055008575320243835,
        -0.030742695555090904,
        0.007509511895477772,
        0.9979842901229858
      ],
      "scale": [
        0.9999998211860657,
        0.9999999403953552,
        0.9999998807907104
      ],
      "translation": [
        -6.268948737897517e-08,
        0.15434136986732483,
        8.324022360284289e-09
      ]
    },
    {
      "children": [
        25
      ],
      "name": "foot.R_15",
      "rotation": [
        -0.6778860688209534,
        0.08896835148334503,
        0.10696705430746078,
        0.7218816876411438
      ],
      "translation": [
        -2.7369761568252216e-08,
        0.2273593693971634,
        8.17346812453934e-09
      ]
    },
    {
      "name": "toe.R_14",
      "rotation": [
        -0.0221478920429945,
        -0.9996019601821899,
        0.0035876352339982986,
        0.017106449231505394
      ],
      "scale": [
        0.9999998807907104,
        1.0000003576278687,
        0.9999998211860657
      ],
      "translation": [
        1.044303221675591e-08,
        0.6078669428825378,
        7.055379613873924e-10
      ]
    }
  ],
  "samplers": [
    {
      "magFilter": 9729,
      "minFilter": 9987,
      "wrapS": 10497,
      "wrapT": 10497
    }
  ],
  "scene": 0,
  "scenes": [
    {
      "name": "Sketchfab_Scene",
      "nodes": [
        0
      ]
    }
  ],
  "skins": [
    {
      "inverseBindMatrices": 5,
      "joints": [
        5,
        8,
        9,
        10,
        11,
        12,
        13,
        14,
        15,
        16,
        17,
        18,
        19,
        20,
        21,
        22,
        23,
        24,
        25
      ],
      "skeleton": 5
    }
  ],
  "textures": [
    {
      "sampler": 0,
      "source": 0
    },
    {
      "sampler": 0,
      "source": 1
    },
    {
      "sampler": 0,
      "source": 2
    }
  ]
}
